<svg width="19" height="19" viewBox="0 0 19 19" fill="none" xmlns="http://www.w3.org/2000/svg">
<g clip-path="url(#clip0_1_96)">
<path d="M17.5 4.1875C17.5 3.56618 16.9963 3.0625 16.375 3.0625H13.543C13.0691 1.71802 11.8006 0.81707 10.375 0.8125H8.12501C6.69946 0.81707 5.43092 1.71802 4.95701 3.0625H2.125C1.50368 3.0625 1 3.56618 1 4.1875C1 4.80882 1.50368 5.3125 2.125 5.3125H2.50001V14.6875C2.50001 16.9657 4.34684 18.8125 6.625 18.8125H11.875C14.1532 18.8125 16 16.9657 16 14.6875V5.3125H16.375C16.9963 5.3125 17.5 4.80882 17.5 4.1875ZM13.75 14.6875C13.75 15.723 12.9106 16.5625 11.875 16.5625H6.625C5.58947 16.5625 4.75001 15.723 4.75001 14.6875V5.3125H13.75V14.6875Z" fill="white"/>
<path d="M7.37506 14.3125C7.99638 14.3125 8.50006 13.8088 8.50006 13.1875V8.6875C8.50006 8.06618 7.99638 7.5625 7.37506 7.5625C6.75374 7.5625 6.25006 8.06618 6.25006 8.6875V13.1875C6.25006 13.8088 6.75374 14.3125 7.37506 14.3125Z" fill="white"/>
<path d="M11.125 14.3125C11.7463 14.3125 12.25 13.8088 12.25 13.1875V8.6875C12.25 8.06618 11.7463 7.5625 11.125 7.5625C10.5037 7.5625 10 8.06618 10 8.6875V13.1875C10 13.8088 10.5037 14.3125 11.125 14.3125Z" fill="white"/>
</g>
<defs>
<clipPath id="clip0_1_96">
<rect width="18" height="18" fill="white" transform="translate(0.25 0.8125)"/>
</clipPath>
</defs>
</svg>
