<svg width="46" height="53" viewBox="0 0 46 53" fill="none" xmlns="http://www.w3.org/2000/svg">
<g clip-path="url(#clip0_1_673)">
<path d="M32.1179 1.83223C31.5634 0.703906 30.4237 0 29.1812 0H16.8187C15.5763 0 14.4366 0.703906 13.8821 1.83223L13.1429 3.3125H3.28571C1.4683 3.3125 0 4.79277 0 6.625C0 8.45723 1.4683 9.9375 3.28571 9.9375H42.7143C44.5317 9.9375 46 8.45723 46 6.625C46 4.79277 44.5317 3.3125 42.7143 3.3125H32.8571L32.1179 1.83223ZM42.7143 13.25H3.28571V46.375C3.28571 50.0291 6.23259 53 9.85714 53H36.1429C39.7674 53 42.7143 50.0291 42.7143 46.375V13.25ZM32.8571 19.875C33.7607 19.875 34.5 20.6203 34.5 21.5312V44.7188C34.5 45.6297 33.7607 46.375 32.8571 46.375C31.9536 46.375 31.2143 45.6297 31.2143 44.7188V21.5312C31.2143 20.6203 31.9536 19.875 32.8571 19.875ZM23 19.875C23.9036 19.875 24.6429 20.6203 24.6429 21.5312V44.7188C24.6429 45.6297 23.9036 46.375 23 46.375C22.0964 46.375 21.3571 45.6297 21.3571 44.7188V21.5312C21.3571 20.6203 22.0964 19.875 23 19.875ZM13.1429 19.875C14.0464 19.875 14.7857 20.6203 14.7857 21.5312V44.7188C14.7857 45.6297 14.0464 46.375 13.1429 46.375C12.2393 46.375 11.5 45.6297 11.5 44.7188V21.5312C11.5 20.6203 12.2393 19.875 13.1429 19.875Z" fill="#F06548"/>
</g>
<defs>
<clipPath id="clip0_1_673">
<rect width="46" height="53" fill="white" transform="matrix(-1 0 0 1 46 0)"/>
</clipPath>
</defs>
</svg>
