<svg width="32" height="32" viewBox="0 0 32 32" fill="none" xmlns="http://www.w3.org/2000/svg">
<rect x="0.5" width="31.5" height="31.5" rx="5" fill="#FF4335"/>
<g clip-path="url(#clip0_8_714)">
<path d="M24.5 10.125C24.5 9.50368 23.9963 9 23.375 9H20.543C20.0691 7.65552 18.8006 6.75457 17.375 6.75H15.125C13.6995 6.75457 12.4309 7.65552 11.957 9H9.125C8.50368 9 8 9.50368 8 10.125C8 10.7463 8.50368 11.25 9.125 11.25H9.50001V20.625C9.50001 22.9032 11.3468 24.75 13.625 24.75H18.875C21.1532 24.75 23 22.9032 23 20.625V11.25H23.375C23.9963 11.25 24.5 10.7463 24.5 10.125ZM20.75 20.625C20.75 21.6605 19.9106 22.5 18.875 22.5H13.625C12.5895 22.5 11.75 21.6605 11.75 20.625V11.25H20.75V20.625Z" fill="white"/>
<path d="M14.3751 20.25C14.9964 20.25 15.5001 19.7463 15.5001 19.125V14.625C15.5001 14.0037 14.9964 13.5 14.3751 13.5C13.7537 13.5 13.2501 14.0037 13.2501 14.625V19.125C13.2501 19.7463 13.7537 20.25 14.3751 20.25Z" fill="white"/>
<path d="M18.125 20.25C18.7463 20.25 19.25 19.7463 19.25 19.125V14.625C19.25 14.0037 18.7463 13.5 18.125 13.5C17.5037 13.5 17 14.0037 17 14.625V19.125C17 19.7463 17.5037 20.25 18.125 20.25Z" fill="white"/>
</g>
<defs>
<clipPath id="clip0_8_714">
<rect width="18" height="18" fill="white" transform="translate(7.25 6.75)"/>
</clipPath>
</defs>
</svg>
