<svg width="13" height="13" viewBox="0 0 13 13" fill="none" xmlns="http://www.w3.org/2000/svg">
<g clip-path="url(#clip0_8_900)">
<path d="M9.2508 1.26483L8.11643 2.39921L11.1633 5.44608L12.2977 4.31171C12.8836 3.72577 12.8836 2.77655 12.2977 2.19061L11.3742 1.26483C10.7883 0.678894 9.83908 0.678894 9.25315 1.26483H9.2508ZM7.58674 2.92889L2.12346 8.39452C1.87971 8.63827 1.70158 8.94061 1.60315 9.27108L0.773458 12.0906C0.714864 12.2898 0.768771 12.5031 0.914083 12.6484C1.0594 12.7937 1.27268 12.8476 1.46955 12.7914L4.28908 11.9617C4.61955 11.8633 4.9219 11.6851 5.16565 11.4414L10.6336 5.97577L7.58674 2.92889Z" fill="#0438A7"/>
</g>
<defs>
<clipPath id="clip0_8_900">
<rect width="12" height="12" fill="white" transform="translate(0.75 0.8125)"/>
</clipPath>
</defs>
</svg>
