<svg width="32" height="32" viewBox="0 0 32 32" fill="none" xmlns="http://www.w3.org/2000/svg">
<rect width="31.5" height="31.5" rx="5" fill="#F2F3F5"/>
<g clip-path="url(#clip0_8_717)">
<path d="M18.2508 10.2023L17.1164 11.3367L20.1633 14.3836L21.2977 13.2492C21.8836 12.6633 21.8836 11.7141 21.2977 11.1281L20.3742 10.2023C19.7883 9.61639 18.8391 9.61639 18.2531 10.2023H18.2508ZM16.5867 11.8664L11.1235 17.332C10.8797 17.5758 10.7016 17.8781 10.6031 18.2086L9.77346 21.0281C9.71486 21.2273 9.76877 21.4406 9.91408 21.5859C10.0594 21.7312 10.2727 21.7851 10.4696 21.7289L13.2891 20.8992C13.6196 20.8008 13.9219 20.6226 14.1656 20.3789L19.6336 14.9133L16.5867 11.8664Z" fill="#0438A7"/>
</g>
<defs>
<clipPath id="clip0_8_717">
<rect width="12" height="12" fill="white" transform="translate(9.75 9.75)"/>
</clipPath>
</defs>
</svg>
